<svg id="Capa_1" data-name="Capa 1" xmlns="http://www.w3.org/2000/svg" viewBox="0 0 854.67 604.29"><defs><style>.cls-1{fill:#fff;}.cls-10,.cls-11,.cls-12,.cls-13,.cls-14,.cls-15,.cls-16,.cls-17,.cls-18,.cls-19,.cls-2,.cls-20,.cls-21,.cls-22,.cls-23,.cls-24,.cls-25,.cls-3,.cls-4,.cls-5,.cls-6,.cls-7,.cls-8,.cls-9{fill:none;}.cls-2,.cls-3,.cls-4,.cls-5,.cls-6{stroke:#1f77b4;}.cls-2,.cls-9{stroke-width:22.58px;}.cls-17,.cls-3{stroke-width:16.94px;}.cls-16,.cls-4{stroke-width:45.16px;}.cls-10,.cls-12,.cls-19,.cls-21,.cls-22,.cls-24,.cls-5,.cls-7{stroke-width:5.65px;}.cls-14,.cls-15,.cls-20,.cls-23,.cls-25,.cls-6,.cls-8{stroke-width:11.29px;}.cls-7,.cls-8{stroke:#ff7f0e;}.cls-9{stroke:#2ca02c;}.cls-10{stroke:#d62728;}.cls-11,.cls-12,.cls-13,.cls-14{stroke:#9467bd;}.cls-11{stroke-width:39.52px;}.cls-13,.cls-18{stroke-width:28.23px;}.cls-15{stroke:#8c564b;}.cls-16,.cls-17,.cls-18,.cls-19,.cls-20{stroke:#e377c2;}.cls-21{stroke:#7f7f7f;}.cls-22,.cls-23{stroke:#bcbd22;}.cls-24,.cls-25{stroke:#17becf;}.cls-26,.cls-27,.cls-29{isolation:isolate;}.cls-27{font-size:10px;}.cls-27,.cls-29{font-family:Arial-BoldMT, Arial;font-weight:700;}.cls-28{letter-spacing:-0.09em;}.cls-29{font-size:12px;fill:#7b7b7b;}</style></defs><title>grafica no figurativa</title><rect id="backgorund" class="cls-1" x="32.17" y="4.29" width="805" height="600"/><g id="visualization"><rect x="822.17" y="14.29" width="5" height="5.65"/><rect x="822.17" y="24.94" width="5" height="5.65"/><rect x="822.17" y="35.59" width="5" height="5.65"/><rect x="822.17" y="46.23" width="5" height="5.65"/><rect x="42.17" y="19.29" width="5" height="11.29"/><rect x="42.17" y="35.59" width="5" height="11.29"/><rect x="42.17" y="51.88" width="5" height="11.29"/><rect x="42.17" y="68.17" width="5" height="22.58"/><rect x="822.17" y="56.88" width="5" height="28.23"/><rect x="822.17" y="90.1" width="5" height="28.23"/><rect x="42.17" y="95.75" width="5" height="28.23"/><rect x="42.17" y="128.97" width="5" height="33.87"/><rect x="822.17" y="123.33" width="5" height="39.52"/><rect x="42.17" y="167.84" width="5" height="39.52"/><rect x="822.17" y="167.84" width="5" height="56.45"/><rect x="822.17" y="229.29" width="5" height="62.1"/><rect x="822.17" y="296.39" width="5" height="62.1"/><rect x="822.17" y="363.49" width="5" height="101.61"/><rect x="42.17" y="212.36" width="5" height="112.9"/><rect x="42.17" y="330.26" width="5" height="112.9"/><rect x="822.17" y="470.1" width="5" height="124.19"/><rect x="42.17" y="448.17" width="5" height="141.13"/><path class="cls-2" d="M15,309.68C402.5,309.68,402.5,494,790,494" transform="translate(32.17 4.29)"/><path class="cls-3" d="M15,227.82c387.5,0,387.5-77.74,775-77.74" transform="translate(32.17 4.29)"/><path class="cls-4" d="M15,264.52c387.5,0,387.5-11.29,775-11.29" transform="translate(32.17 4.29)"/><path class="cls-5" d="M15,210.89c387.5,0,387.5-198.07,775-198.07" transform="translate(32.17 4.29)"/><path class="cls-6" d="M15,292.74c387.5,0,387.5,21.94,775,21.94" transform="translate(32.17 4.29)"/><path class="cls-5" d="M15,239.11c387.5,0,387.5-44.51,775-44.51" transform="translate(32.17 4.29)"/><path class="cls-5" d="M15,216.53c387.5,0,387.5-144.19,775-144.19" transform="translate(32.17 4.29)"/><path class="cls-7" d="M15,194.6c387.5,0,387.5,195.64,775,195.64" transform="translate(32.17 4.29)"/><path class="cls-7" d="M15,200.24c387.5,0,387.5,279.68,775,279.68" transform="translate(32.17 4.29)"/><path class="cls-8" d="M15,174.84c387.5,0,387.5,11.29,775,11.29" transform="translate(32.17 4.29)"/><path class="cls-8" d="M15,186.13c387.5,0,387.5,117.26,775,117.26" transform="translate(32.17 4.29)"/><path class="cls-7" d="M15,166.37c387.5,0,387.5-99.68,775-99.68" transform="translate(32.17 4.29)"/><path class="cls-9" d="M15,75.16c387.5,0,387.5,55.16,775,55.16" transform="translate(32.17 4.29)"/><path class="cls-10" d="M15,23.47c387.5,0,387.5,445.16,775,445.16" transform="translate(32.17 4.29)"/><path class="cls-10" d="M15,17.82c387.5,0,387.5,148.55,775,148.55" transform="translate(32.17 4.29)"/><path class="cls-11" d="M15,565.24c387.5,0,387.5,5,775,5" transform="translate(32.17 4.29)"/><path class="cls-12" d="M15,446.69c387.5,0,387.5-423.22,775-423.22" transform="translate(32.17 4.29)"/><path class="cls-13" d="M15,491.85c387.5,0,387.5-151.77,775-151.77" transform="translate(32.17 4.29)"/><path class="cls-12" d="M15,452.34c387.5,0,387.5-418.23,775-418.23" transform="translate(32.17 4.29)"/><path class="cls-11" d="M15,525.73c387.5,0,387.5-84.68,775-84.68" transform="translate(32.17 4.29)"/><path class="cls-14" d="M15,472.1c387.5,0,387.5-190.65,775-190.65" transform="translate(32.17 4.29)"/><path class="cls-12" d="M15,458C402.5,458,402.5,44.76,790,44.76" transform="translate(32.17 4.29)"/><path class="cls-12" d="M15,463.63c387.5,0,387.5-246.45,775-246.45" transform="translate(32.17 4.29)"/><path class="cls-15" d="M15,36.94c387.5,0,387.5,327.9,775,327.9" transform="translate(32.17 4.29)"/><path class="cls-16" d="M15,416.29c387.5,0,387.5,111.61,775,111.61" transform="translate(32.17 4.29)"/><path class="cls-17" d="M15,351.37c387.5,0,387.5-145.48,775-145.48" transform="translate(32.17 4.29)"/><path class="cls-18" d="M15,379.6c387.5,0,387.5,27.58,775,27.58" transform="translate(32.17 4.29)"/><path class="cls-19" d="M15,362.66c387.5,0,387.5-39.51,775-39.51" transform="translate(32.17 4.29)"/><path class="cls-20" d="M15,337.26c387.5,0,387.5-228.87,775-228.87" transform="translate(32.17 4.29)"/><path class="cls-19" d="M15,328.79C402.5,328.79,402.5,78,790,78" transform="translate(32.17 4.29)"/><path class="cls-21" d="M15,50.4c387.5,0,387.5,38.23,775,38.23" transform="translate(32.17 4.29)"/><path class="cls-21" d="M15,56.05c387.5,0,387.5,317.26,775,317.26" transform="translate(32.17 4.29)"/><path class="cls-22" d="M15,105.56c387.5,0,387.5-11.29,775-11.29" transform="translate(32.17 4.29)"/><path class="cls-23" d="M15,114c387.5,0,387.5,267.74,775,267.74" transform="translate(32.17 4.29)"/><path class="cls-23" d="M15,97.1c387.5,0,387.5-38.87,775-38.87" transform="translate(32.17 4.29)"/><path class="cls-24" d="M15,127.5c387.5,0,387.5-27.58,775-27.58" transform="translate(32.17 4.29)"/><path class="cls-24" d="M15,155.73c387.5,0,387.5,318.54,775,318.54" transform="translate(32.17 4.29)"/><path class="cls-25" d="M15,136c387.5,0,387.5,38.87,775,38.87" transform="translate(32.17 4.29)"/><path class="cls-24" d="M15,144.44c387.5,0,387.5,83.38,775,83.38" transform="translate(32.17 4.29)"/><path class="cls-24" d="M15,150.08c387.5,0,387.5,144.84,775,144.84" transform="translate(32.17 4.29)"/><g class="cls-26"><text class="cls-27" transform="translate(787.04 16.6)">60 - 60</text></g><g class="cls-26"><text class="cls-27" transform="translate(787.04 27.24)">40 - 40</text></g><g class="cls-26"><text class="cls-27" transform="translate(787.04 37.89)">60 - 70</text></g><g class="cls-26"><text class="cls-27" transform="translate(787.04 48.53)">20 - 20</text></g><g class="cls-26"><text class="cls-27" transform="translate(51.17 24.42)">ANTI-ISLAMIC(MUSLIM)</text></g><g class="cls-26"><text class="cls-27" transform="translate(51.17 40.71)">ANTI-LGBT(MIXED GROUP)</text></g><g class="cls-26"><text class="cls-27" transform="translate(51.17 57)">ANTI-TRANSGENDER</text></g><g class="cls-26"><text class="cls-27" transform="translate(51.17 78.94)">ANTI-FEMALE</text></g><g class="cls-26"><text class="cls-27" transform="translate(787.04 70.47)">70 - 70</text></g><g class="cls-26"><text class="cls-27" transform="translate(787.04 103.7)">30 - 30</text></g><g class="cls-26"><text class="cls-27" transform="translate(51.17 109.34)">ANTI-WHITE</text></g><g class="cls-26"><text class="cls-27" transform="translate(51.17 145.39)">OTHER</text></g><g class="cls-26"><text class="cls-27" transform="translate(787.04 142.57)">50 - 50</text></g><g class="cls-26"><text class="cls-27" transform="translate(51.17 187.08)">ANTI-BLACK</text></g><g class="cls-26"><text class="cls-27" transform="translate(787.04 195.55)">40 - 50</text></g><g class="cls-26"><text class="cls-27" transform="translate(787.04 259.82)">10 - 20</text></g><g class="cls-26"><text class="cls-27" transform="translate(787.04 326.92)">50 - 60</text></g><g class="cls-26"><text class="cls-27" transform="translate(787.04 413.78)">20 - 30</text></g><g class="cls-26"><text class="cls-27" transform="translate(51.17 268.29)">ANTI-ASIAN</text></g><g class="cls-26"><text class="cls-27" transform="translate(51.17 386.2)">ANTI-MALE HOMOSEXUAL(G<tspan class="cls-28" x="140.55" y="0">A</tspan><tspan x="146.85" y="0">Y)</tspan></text></g><g class="cls-26"><text class="cls-27" transform="translate(787.04 531.68)">30 - 40</text></g><g class="cls-26"><text class="cls-27" transform="translate(51.17 518.21)">ANTI-JEWISH</text></g><text class="cls-29" transform="translate(794.67 10.29)">Age group</text><text class="cls-29" transform="translate(0 15.29)">Bias-Motivation</text></g></svg>